<?xml version="1.0" encoding="utf-8"?>
<!-- Generator: Adobe Illustrator 25.0.0, SVG Export Plug-In . SVG Version: 6.00 Build 0)  -->
<svg version="1.1" id="Vrstva_1" xmlns="http://www.w3.org/2000/svg" xmlns:xlink="http://www.w3.org/1999/xlink" x="0px" y="0px"
	 viewBox="0 0 500 500" style="enable-background:new 0 0 500 500;" xml:space="preserve">
<style type="text/css">
	.st0{fill:url(#SVGID_1_);}
	.st1{fill:#FFFFFF;}
</style>
<linearGradient id="SVGID_1_" gradientUnits="userSpaceOnUse" x1="108.1747" y1="364.11" x2="454.6861" y2="131.8929">
	<stop  offset="0" style="stop-color:#2BB4AE"/>
	<stop  offset="1" style="stop-color:#E9474F"/>
</linearGradient>
<path class="st0" d="M390.2,468.1H138.2c-45.6,0-82.6-37-82.6-82.6V133.6c0-45.6,37-82.6,82.6-82.6h251.9c45.6,0,82.6,37,82.6,82.6
	v251.9C472.8,431.1,435.8,468.1,390.2,468.1z"/>
<g>
	<g>
		<path class="st1" d="M182,144.3h82.1c52.6,0,95,18.8,95,76.9c0,56.2-42.9,81-93.5,81H236v81.1h-54V144.3z M262.3,259.3
			c29.7,0,43.8-13.2,43.8-38.1c0-25-16-34-45.2-34H236v72.1H262.3z"/>
	</g>
</g>
</svg>
