<?xml version="1.0" encoding="utf-8"?>
<!-- Generator: Adobe Illustrator 25.0.0, SVG Export Plug-In . SVG Version: 6.00 Build 0)  -->
<svg version="1.1" id="Vrstva_1" xmlns="http://www.w3.org/2000/svg" xmlns:xlink="http://www.w3.org/1999/xlink" x="0px" y="0px"
	 viewBox="0 0 500 500" style="enable-background:new 0 0 500 500;" xml:space="preserve">
<style type="text/css">
	.st0{fill:#FFFFFF;}
</style>
<g>
	<path class="st0" d="M246.7,173.2h-24.9v72.1h26.3c29.7,0,43.8-13.2,43.8-38.1C291.9,182.2,275.9,173.2,246.7,173.2z"/>
	<path class="st0" d="M375.9,37H124c-45.6,0-82.6,37-82.6,82.6v251.9c0,45.6,37,82.6,82.6,82.6h252c45.6,0,82.6-37,82.5-82.6V119.6
		C458.5,74,421.5,37,375.9,37z M251.4,288.2h-29.6v81.1h-54v-239h82.1c52.6,0,95,18.8,95,76.9C344.9,263.4,302,288.2,251.4,288.2z"
		/>
</g>
</svg>
